<svg xmlns="http://www.w3.org/2000/svg" viewBox="0 0 908 321" width="908" height="321">
	<style>
		tspan { white-space:pre }
		.shp0 { fill: #000000 } 
		.shp1 { fill: #ff0000 } 
	</style>
	<path id="Express " fill-rule="evenodd" class="shp0" d="M68.81 180.8L7.82 180.55L8.15 100.2L67.2 100.45L67.14 114.48L24.43 114.31L24.36 131.49L63.69 131.65L63.63 145.81L24.3 145.65L24.22 166.34L68.87 166.52L68.81 180.8ZM128.46 181.04L109.22 180.96L98.89 163.01L88.65 180.88L69.78 180.8L89.87 150.51L70.63 121.27L89.62 121.35L99.59 138.7L109.83 121.43L128.1 121.51L108.26 150.59L128.46 181.04ZM147.95 209.32L132.46 209.25L132.82 121.53L147.94 121.59L148.04 128.85C151.69 122.98 157.23 120.06 164.65 120.09C168.36 120.1 171.78 120.84 174.92 122.31C178.15 123.78 180.88 125.88 183.13 128.63C185.38 131.38 187.14 134.74 188.41 138.7C189.68 142.65 190.31 147.13 190.29 152.14C190.27 156.65 189.69 160.8 188.54 164.59C187.48 168.3 185.9 171.52 183.79 174.25C181.68 176.98 179.09 179.11 176.02 180.63C173.03 182.07 169.59 182.78 165.72 182.77C158.38 182.74 152.5 179.61 148.09 173.38L147.95 209.32ZM160.69 169.32C169.73 169.35 174.27 163.24 174.32 150.98C174.35 145.66 173.11 141.34 170.62 138.02C168.13 134.62 164.92 132.91 160.97 132.9C157.18 132.88 153.98 134.44 151.39 137.58C148.88 140.71 147.61 144.82 147.59 149.9C147.54 162.81 151.9 169.28 160.69 169.32ZM211.59 181.39L195.86 181.32L196.1 121.79L210.86 121.85L210.83 128.99C212.13 126.98 213.47 125.41 214.85 124.29C216.3 123.16 217.76 122.32 219.21 121.76C220.75 121.12 222.29 120.72 223.82 120.57C225.35 120.42 226.93 120.34 228.54 120.35L230.59 120.36L230.53 136.45C229.08 136.2 227.62 136.08 226.17 136.07C216.57 136.03 211.75 140.81 211.71 150.41L211.59 181.39ZM286.59 156.04L245.57 155.87C245.8 160.39 247.07 163.99 249.4 166.66C251.81 169.33 254.95 170.68 258.82 170.69C261.4 170.7 263.66 170.15 265.6 169.02C267.63 167.82 268.93 166.17 269.5 164.08L285.71 164.15C283.83 170.27 280.58 174.97 275.97 178.26C271.36 181.55 265.87 183.18 259.5 183.16C239.65 183.07 229.77 172.22 229.86 150.61C229.88 146.01 230.54 141.86 231.85 138.15C233.16 134.44 235.03 131.26 237.46 128.61C239.97 125.96 243 123.96 246.56 122.6C250.11 121.17 254.19 120.46 258.79 120.47C267.98 120.51 274.91 123.48 279.56 129.39C284.29 135.3 286.64 144.18 286.59 156.04ZM246.1 145.95L270.42 146.05C270.35 143.88 269.95 141.98 269.23 140.36C268.59 138.67 267.71 137.29 266.59 136.24C265.46 135.11 264.17 134.29 262.72 133.8C261.27 133.23 259.78 132.94 258.25 132.93C255.1 132.92 252.36 134.08 250.01 136.41C247.74 138.66 246.44 141.84 246.1 145.95ZM343.04 140.42L327.92 140.36C327.53 137.45 326.49 135.43 324.8 134.3C323.11 133.08 320.45 132.46 316.82 132.45C313.83 132.44 311.53 132.83 309.91 133.63C308.3 134.35 307.49 135.6 307.48 137.37C307.47 139.14 308.27 140.52 309.88 141.5C311.49 142.39 313.91 143.29 317.13 144.19C320.52 145.17 323.74 146.07 326.8 146.89C329.86 147.63 332.56 148.45 334.9 149.34C338.04 150.65 340.45 152.43 342.14 154.7C343.82 156.88 344.65 159.91 344.64 163.78C344.61 169.99 342.37 174.82 337.92 178.27C333.55 181.72 327.09 183.43 318.54 183.4C309.35 183.36 302.3 181.39 297.39 177.5C292.57 173.61 290.09 168.64 289.95 162.59L306.17 162.66C306.16 165.48 307.24 167.66 309.41 169.2C311.58 170.75 314.6 171.53 318.47 171.54C321.3 171.55 323.76 171.12 325.86 170.24C327.96 169.28 329.01 167.67 329.02 165.41C329.03 163.32 328.07 161.82 326.14 160.92C324.29 160.03 322.07 159.25 319.49 158.6C314.5 157.37 310.47 156.26 307.41 155.28C304.34 154.3 301.77 153.12 299.68 151.74C296.86 149.95 294.89 147.93 293.77 145.67C292.73 143.4 292.22 140.94 292.23 138.28C292.24 135.78 292.69 133.44 293.59 131.27C294.48 129.09 295.94 127.24 297.97 125.72C299.99 124.11 302.58 122.87 305.73 122C308.96 121.13 312.83 120.7 317.35 120.71C325.98 120.75 332.31 122.43 336.33 125.75C340.43 129.08 342.67 133.97 343.04 140.42ZM400.15 140.66L385.03 140.6C384.64 137.69 383.6 135.67 381.91 134.53C380.22 133.32 377.56 132.7 373.93 132.68C370.94 132.67 368.64 133.07 367.03 133.87C365.41 134.59 364.6 135.84 364.59 137.61C364.58 139.38 365.38 140.76 366.99 141.73C368.6 142.62 371.02 143.52 374.24 144.42C377.63 145.41 380.85 146.31 383.91 147.12C386.98 147.86 389.68 148.68 392.01 149.58C395.15 150.88 397.56 152.66 399.25 154.93C400.93 157.12 401.76 160.15 401.75 164.02C401.72 170.23 399.49 175.06 395.04 178.51C390.67 181.96 384.2 183.67 375.65 183.63C366.46 183.6 359.41 181.63 354.5 177.74C349.68 173.85 347.2 168.87 347.06 162.82L363.28 162.89C363.27 165.72 364.35 167.9 366.52 169.44C368.69 170.98 371.71 171.76 375.58 171.77C378.41 171.78 380.87 171.35 382.97 170.47C385.07 169.51 386.12 167.9 386.13 165.65C386.14 163.55 385.18 162.05 383.25 161.16C381.4 160.27 379.18 159.49 376.6 158.83C371.61 157.6 367.58 156.5 364.52 155.51C361.46 154.53 358.88 153.35 356.79 151.97C353.97 150.18 352 148.16 350.88 145.9C349.84 143.64 349.33 141.18 349.34 138.51C349.35 136.01 349.81 133.67 350.7 131.5C351.6 129.33 353.06 127.48 355.08 125.95C357.1 124.34 359.69 123.1 362.84 122.23C366.07 121.36 369.94 120.93 374.46 120.95C383.09 120.98 389.42 122.66 393.44 125.99C397.54 129.31 399.78 134.2 400.15 140.66Z" />
	<path id="Delivery " fill-rule="evenodd" class="shp0" d="M534.42 285L500.78 285L500.78 204.66L531.88 204.66C537.29 204.66 542.29 205.59 546.88 207.44C551.48 209.21 555.39 211.79 558.62 215.18C561.93 218.57 564.51 222.69 566.36 227.53C568.22 232.37 569.15 237.85 569.15 243.98C569.15 250.11 568.3 255.72 566.61 260.8C565 265.8 562.66 270.12 559.59 273.75C556.52 277.3 552.85 280.08 548.58 282.1C544.3 284.03 539.58 285 534.42 285ZM517.12 271.33L531.03 271.33C538.37 271.33 543.69 269.07 547 264.55C550.31 259.95 551.97 253.09 551.97 243.98C551.97 239.47 551.57 235.6 550.76 232.37C549.95 229.14 548.62 226.52 546.76 224.5C544.99 222.4 542.69 220.91 539.87 220.02C537.04 219.05 533.61 218.57 529.58 218.57L517.12 218.57L517.12 271.33ZM630.01 259.35L588.99 259.35C589.23 263.86 590.52 267.45 592.86 270.12C595.28 272.78 598.43 274.11 602.3 274.11C604.88 274.11 607.14 273.55 609.08 272.42C611.09 271.21 612.38 269.55 612.95 267.46L629.16 267.46C627.31 273.59 624.08 278.3 619.48 281.61C614.89 284.92 609.4 286.57 603.03 286.57C583.18 286.57 573.26 275.76 573.26 254.15C573.26 249.55 573.91 245.39 575.2 241.68C576.49 237.97 578.34 234.79 580.76 232.12C583.26 229.46 586.29 227.44 589.84 226.07C593.39 224.62 597.46 223.9 602.06 223.9C611.25 223.9 618.19 226.84 622.87 232.73C627.63 238.62 630.01 247.49 630.01 259.35ZM589.48 249.43L613.8 249.43C613.72 247.25 613.32 245.35 612.59 243.74C611.94 242.05 611.05 240.68 609.92 239.63C608.79 238.5 607.5 237.69 606.05 237.21C604.6 236.64 603.11 236.36 601.58 236.36C598.43 236.36 595.69 237.53 593.35 239.87C591.09 242.13 589.8 245.32 589.48 249.43ZM651.19 285L635.46 285L635.46 203.69L651.19 203.69L651.19 285ZM673.93 285L658.2 285L658.2 225.47L673.93 225.47L673.93 285ZM673.93 218.33L658.2 218.33L658.2 203.69L673.93 203.69L673.93 218.33ZM716.04 285L699.59 285L678.29 225.47L695.83 225.47L708.3 264.79L720.88 225.47L737.46 225.47L716.04 285ZM793 259.35L751.98 259.35C752.22 263.86 753.51 267.45 755.85 270.12C758.27 272.78 761.42 274.11 765.29 274.11C767.87 274.11 770.13 273.55 772.06 272.42C774.08 271.21 775.37 269.55 775.94 267.46L792.15 267.46C790.3 273.59 787.07 278.3 782.47 281.61C777.87 284.92 772.38 286.57 766.01 286.57C746.17 286.57 736.25 275.76 736.25 254.15C736.25 249.55 736.89 245.39 738.18 241.68C739.47 237.97 741.33 234.79 743.75 232.12C746.25 229.46 749.28 227.44 752.83 226.07C756.38 224.62 760.45 223.9 765.05 223.9C774.24 223.9 781.18 226.84 785.86 232.73C790.62 238.62 793 247.49 793 259.35ZM752.46 249.43L776.78 249.43C776.7 247.25 776.3 245.35 775.57 243.74C774.93 242.05 774.04 240.68 772.91 239.63C771.78 238.5 770.49 237.69 769.04 237.21C767.59 236.64 766.09 236.36 764.56 236.36C761.41 236.36 758.67 237.53 756.33 239.87C754.08 242.13 752.79 245.32 752.46 249.43ZM814.17 285L798.44 285L798.44 225.47L813.2 225.47L813.2 232.61C814.49 230.59 815.83 229.02 817.2 227.89C818.65 226.76 820.1 225.91 821.55 225.35C823.08 224.7 824.62 224.3 826.15 224.14C827.68 223.98 829.26 223.9 830.87 223.9L832.93 223.9L832.93 239.99C831.48 239.75 830.02 239.63 828.57 239.63C818.97 239.63 814.17 244.43 814.17 254.02L814.17 285ZM875.16 286.81L875.16 277.14C874.03 279.8 871.97 281.9 868.99 283.43C866.08 284.88 862.77 285.61 859.06 285.61C855.91 285.61 853.01 285.12 850.35 284.15C847.69 283.1 845.39 281.65 843.45 279.8C841.52 277.86 839.99 275.6 838.86 273.02C837.81 270.36 837.28 267.38 837.28 264.07L837.28 225.47L853.01 225.47L853.01 261.77C853.01 269.19 856.36 272.9 863.06 272.9C866.69 272.9 869.59 271.85 871.77 269.75C874.03 267.66 875.16 265 875.16 261.77L875.16 225.47L890.89 225.47L890.89 286.57C890.89 290.76 890.16 294.52 888.71 297.83C887.34 301.14 885.4 303.92 882.9 306.17C880.48 308.43 877.58 310.17 874.19 311.38C870.88 312.59 867.33 313.19 863.54 313.19C854.75 313.19 848.17 310.97 843.82 306.54C839.46 302.1 837.28 296.01 837.28 288.27L851.92 288.27C851.92 291.82 852.93 294.6 854.95 296.62C857.05 298.63 860.16 299.64 864.27 299.64C865.72 299.64 867.09 299.36 868.38 298.79C869.67 298.15 870.8 297.3 871.77 296.25C872.82 295.12 873.62 293.75 874.19 292.14C874.84 290.53 875.16 288.75 875.16 286.81Z" />
	<path id="Moving " fill-rule="evenodd" class="shp0" d="M578.71 94L562.98 94L562.98 38.95L547.97 94L531.27 94L516.39 39.19L516.39 94L500.78 94L500.78 13.66L525.47 13.66L539.99 72.58L554.51 13.66L578.71 13.66L578.71 94ZM614.52 95.57C609.68 95.57 605.37 94.8 601.58 93.27C597.79 91.74 594.56 89.61 591.9 86.86C589.31 84.12 587.34 80.81 585.97 76.94C584.6 73.07 583.91 68.83 583.91 64.23C583.91 59.56 584.6 55.28 585.97 51.41C587.42 47.54 589.47 44.23 592.14 41.49C594.8 38.74 597.99 36.64 601.7 35.19C605.49 33.66 609.76 32.9 614.52 32.9C619.2 32.9 623.4 33.66 627.11 35.19C630.82 36.64 633.96 38.74 636.54 41.49C639.21 44.15 641.22 47.42 642.59 51.29C644.04 55.16 644.77 59.48 644.77 64.23C644.77 68.99 644.04 73.31 642.59 77.18C641.22 80.97 639.21 84.24 636.54 86.98C633.96 89.73 630.78 91.86 626.99 93.39C623.28 94.84 619.12 95.57 614.52 95.57ZM614.52 82.38C624.12 82.38 628.92 76.33 628.92 64.23C628.92 52.22 624.12 46.21 614.52 46.21C604.92 46.21 600.12 52.22 600.12 64.23C600.12 76.33 604.92 82.38 614.52 82.38ZM681.31 94L664.86 94L643.56 34.47L661.11 34.47L673.57 73.79L686.15 34.47L702.73 34.47L681.31 94ZM723.06 94L707.33 94L707.33 34.47L723.06 34.47L723.06 94ZM723.06 27.33L707.33 27.33L707.33 12.69L723.06 12.69L723.06 27.33ZM784.16 94L768.31 94L768.31 57.94C768.31 53.35 767.54 50.24 766.01 48.63C764.48 47.02 761.86 46.21 758.15 46.21C750 46.21 745.93 50.77 745.93 59.88L745.93 94L730.2 94L730.2 34.47L745.2 34.47L745.2 43.18C747.06 39.79 749.52 37.25 752.58 35.56C755.65 33.79 759.6 32.9 764.44 32.9C767.27 32.9 769.89 33.34 772.31 34.23C774.73 35.04 776.79 36.29 778.48 37.98C780.25 39.67 781.62 41.77 782.59 44.27C783.64 46.69 784.16 49.51 784.16 52.74L784.16 94ZM832.56 95.81L832.56 86.01C831.43 88.68 829.38 90.78 826.39 92.31C823.49 93.76 820.1 94.48 816.23 94.48C811.31 94.48 807.16 93.63 803.77 91.94C800.46 90.17 797.76 87.87 795.66 85.05C793.64 82.22 792.15 78.96 791.18 75.25C790.29 71.54 789.85 67.74 789.85 63.87C789.85 59.27 790.54 55.08 791.91 51.29C793.28 47.42 795.14 44.15 797.47 41.49C799.81 38.74 802.55 36.64 805.7 35.19C808.85 33.66 812.24 32.9 815.87 32.9C823.29 32.9 828.85 35.88 832.56 41.85L832.56 34.47L848.29 34.47L848.29 94.61C848.29 99.12 847.53 103.11 846 106.58C844.47 109.97 842.37 112.84 839.7 115.17C837.04 117.43 833.9 119.17 830.27 120.38C826.64 121.59 822.76 122.19 818.65 122.19C814.54 122.19 810.7 121.63 807.15 120.5C803.6 119.29 800.54 117.63 797.96 115.54C795.46 113.36 793.48 110.74 792.03 107.67C790.58 104.6 789.85 101.14 789.85 97.27L804.49 97.27C804.49 100.9 805.66 103.72 808 105.74C810.42 107.67 813.61 108.64 817.56 108.64C821.75 108.64 825.3 107.51 828.21 105.25C831.11 102.91 832.56 99.76 832.56 95.81ZM819.62 82.14C823.49 82.14 826.68 80.69 829.18 77.79C831.76 74.8 833.05 70.77 833.05 65.69C833.05 52.94 828.57 46.57 819.62 46.57C810.67 46.57 806.19 52.62 806.19 64.72C806.19 70.04 807.44 74.27 809.94 77.42C812.52 80.57 815.75 82.14 819.62 82.14Z" />
	<path id="{ " class="shp1" d="M489.7 261.67L480.19 261.67C470.94 261.67 463.4 260.9 457.57 259.35C451.92 257.64 447.46 255.15 444.21 251.9C441.12 248.47 439.07 244.19 438.04 239.05C437.01 233.91 436.5 227.91 436.5 221.06C436.5 219.52 436.59 217.29 436.76 214.38C436.93 211.47 437.01 208.38 437.01 205.13C437.18 201.87 437.36 198.87 437.53 196.13C437.7 193.22 437.78 191.16 437.78 189.96C437.78 180.03 436.24 173.09 433.16 169.15C430.25 165.21 424.76 163.24 416.71 163.24L416.71 141.13C424.76 141.13 430.25 139.16 433.16 135.22C436.24 131.11 437.78 124.09 437.78 114.15C437.78 112.95 437.7 110.98 437.53 108.24C437.36 105.33 437.18 102.33 437.01 99.24C437.01 96.16 436.93 93.16 436.76 90.25C436.59 87.34 436.5 85.11 436.5 83.57C436.5 76.72 437.01 70.72 438.04 65.58C439.07 60.44 441.12 56.24 444.21 52.98C447.46 49.55 451.92 47.07 457.57 45.53C463.4 43.82 470.94 42.96 480.19 42.96L489.7 42.96L489.7 64.03L484.04 64.03C476.51 64.03 471.37 65.23 468.62 67.63C466.05 70.03 464.77 74.23 464.77 80.22C464.77 87.93 465.03 95.56 465.54 103.1C466.05 110.64 466.31 118.26 466.31 125.97C466.31 129.57 465.54 132.91 464 135.99C462.46 138.9 460.4 141.56 457.83 143.96C455.43 146.19 452.52 147.99 449.09 149.36C445.84 150.73 442.41 151.67 438.81 152.19C442.41 152.7 445.84 153.64 449.09 155.01C452.52 156.38 455.43 158.27 457.83 160.67C460.4 162.9 462.46 165.55 464 168.63C465.54 171.54 466.31 174.8 466.31 178.4C466.31 186.11 466.05 193.82 465.54 201.53C465.03 209.07 464.77 216.69 464.77 224.4C464.77 230.4 466.05 234.6 468.62 237C471.37 239.39 476.51 240.59 484.04 240.59L489.7 240.59L489.7 261.67Z" />
</svg>