<svg xmlns="http://www.w3.org/2000/svg" viewBox="0 0 880 289" width="880" height="289">
	<style>
		tspan { white-space:pre }
	</style>
	<path id="Express " fill="#e3e3e8" d="M70.24 158L9.76 158L9.76 78.32L68.32 78.32L68.32 92.24L25.96 92.24L25.96 109.28L64.96 109.28L64.96 123.32L25.96 123.32L25.96 143.84L70.24 143.84L70.24 158ZM129.4 158L110.32 158L100 140.24L89.92 158L71.2 158L91 127.88L71.8 98.96L90.64 98.96L100.6 116.12L110.68 98.96L128.8 98.96L109.24 127.88L129.4 158ZM161.32 146.24Q174.76 146.24 174.76 128Q174.76 120.08 171.04 115.16Q167.32 110.12 161.44 110.12Q155.8 110.12 151.96 114.8Q148.24 119.48 148.24 127.04Q148.24 146.24 161.32 146.24ZM148.84 185.96L133.48 185.96L133.48 98.96L148.48 98.96L148.6 106.16Q154 97.4 165.04 97.4Q170.56 97.4 175.24 99.56Q180.04 101.72 183.4 105.8Q186.76 109.88 188.68 115.76Q190.6 121.64 190.6 129.08Q190.6 135.8 188.92 141.44Q187.36 146.96 184.24 151.04Q181.12 155.12 176.56 157.4Q172.12 159.56 166.36 159.56Q155.44 159.56 148.84 150.32L148.84 185.96ZM211.84 158L196.24 158L196.24 98.96L210.88 98.96L210.88 106.04Q212.8 103.04 214.84 101.36Q217 99.68 219.16 98.84Q221.44 97.88 223.72 97.64Q226 97.4 228.4 97.4L230.44 97.4L230.44 113.36Q228.28 113 226.12 113Q211.84 113 211.84 127.28L211.84 158ZM245.92 122.72L270.04 122.72Q269.92 119.48 268.84 117.08Q267.88 114.56 266.2 113Q264.52 111.32 262.36 110.6Q260.2 109.76 257.92 109.76Q253.24 109.76 249.76 113.24Q246.4 116.6 245.92 122.72ZM286.12 132.56L245.44 132.56Q245.8 139.28 249.28 143.24Q252.88 147.2 258.64 147.2Q262.48 147.2 265.36 145.52Q268.36 143.72 269.2 140.6L285.28 140.6Q282.52 149.72 275.68 154.64Q268.84 159.56 259.36 159.56Q229.84 159.56 229.84 127.4Q229.84 120.56 231.76 115.04Q233.68 109.52 237.28 105.56Q241 101.6 246.28 99.56Q251.56 97.4 258.4 97.4Q272.08 97.4 279.04 106.16Q286.12 114.92 286.12 132.56ZM342.04 116.84L327.04 116.84Q326.44 112.52 323.92 110.84Q321.4 109.04 316 109.04Q311.56 109.04 309.16 110.24Q306.76 111.32 306.76 113.96Q306.76 116.6 309.16 118.04Q311.56 119.36 316.36 120.68Q321.4 122.12 325.96 123.32Q330.52 124.4 334 125.72Q338.68 127.64 341.2 131Q343.72 134.24 343.72 140Q343.72 149.24 337.12 154.4Q330.64 159.56 317.92 159.56Q304.24 159.56 296.92 153.8Q289.72 148.04 289.48 139.04L305.56 139.04Q305.56 143.24 308.8 145.52Q312.04 147.8 317.8 147.8Q322 147.8 325.12 146.48Q328.24 145.04 328.24 141.68Q328.24 138.56 325.36 137.24Q322.6 135.92 318.76 134.96Q311.32 133.16 306.76 131.72Q302.2 130.28 299.08 128.24Q294.88 125.6 293.2 122.24Q291.64 118.88 291.64 114.92Q291.64 111.2 292.96 107.96Q294.28 104.72 297.28 102.44Q300.28 100.04 304.96 98.72Q309.76 97.4 316.48 97.4Q329.32 97.4 335.32 102.32Q341.44 107.24 342.04 116.84ZM398.68 116.84L383.68 116.84Q383.08 112.52 380.56 110.84Q378.04 109.04 372.64 109.04Q368.2 109.04 365.8 110.24Q363.4 111.32 363.4 113.96Q363.4 116.6 365.8 118.04Q368.2 119.36 373 120.68Q378.04 122.12 382.6 123.32Q387.16 124.4 390.64 125.72Q395.32 127.64 397.84 131Q400.36 134.24 400.36 140Q400.36 149.24 393.76 154.4Q387.28 159.56 374.56 159.56Q360.88 159.56 353.56 153.8Q346.36 148.04 346.12 139.04L362.2 139.04Q362.2 143.24 365.44 145.52Q368.68 147.8 374.44 147.8Q378.64 147.8 381.76 146.48Q384.88 145.04 384.88 141.68Q384.88 138.56 382 137.24Q379.24 135.92 375.4 134.96Q367.96 133.16 363.4 131.72Q358.84 130.28 355.72 128.24Q351.52 125.6 349.84 122.24Q348.28 118.88 348.28 114.92Q348.28 111.2 349.6 107.96Q350.92 104.72 353.92 102.44Q356.92 100.04 361.6 98.72Q366.4 97.4 373.12 97.4Q385.96 97.4 391.96 102.32Q398.08 107.24 398.68 116.84Z" />
	<path id="Moving " fill="#e3e3e8" d="M555.04 91L539.44 91L539.44 36.4L524.56 91L508 91L493.24 36.64L493.24 91L477.76 91L477.76 11.32L502.24 11.32L516.64 69.76L531.04 11.32L555.04 11.32L555.04 91ZM590.56 79.48Q604.84 79.48 604.84 61.48Q604.84 43.6 590.56 43.6Q576.28 43.6 576.28 61.48Q576.28 79.48 590.56 79.48ZM590.56 92.56Q583.36 92.56 577.72 90.28Q572.08 88 568.12 83.92Q564.28 79.84 562.24 74.08Q560.2 68.32 560.2 61.48Q560.2 54.52 562.24 48.76Q564.4 43 568.36 38.92Q572.32 34.84 577.84 32.68Q583.48 30.4 590.56 30.4Q597.52 30.4 603.04 32.68Q608.56 34.84 612.4 38.92Q616.36 42.88 618.4 48.64Q620.56 54.4 620.56 61.48Q620.56 68.56 618.4 74.32Q616.36 79.96 612.4 84.04Q608.56 88.12 602.92 90.4Q597.4 92.56 590.56 92.56ZM656.8 91L640.48 91L619.36 31.96L636.76 31.96L649.12 70.96L661.6 31.96L678.04 31.96L656.8 91ZM698.2 91L682.6 91L682.6 31.96L698.2 31.96L698.2 91ZM698.2 24.88L682.6 24.88L682.6 10.36L698.2 10.36L698.2 24.88ZM758.8 91L743.08 91L743.08 55.24Q743.08 48.4 740.8 46Q738.52 43.6 733 43.6Q720.88 43.6 720.88 57.16L720.88 91L705.28 91L705.28 31.96L720.16 31.96L720.16 40.6Q722.92 35.56 727.48 33.04Q732.04 30.4 739.24 30.4Q743.44 30.4 747.04 31.72Q750.64 32.92 753.16 35.44Q755.8 37.96 757.24 41.68Q758.8 45.28 758.8 50.08L758.8 91ZM793.96 79.24Q799.72 79.24 803.44 74.92Q807.28 70.48 807.28 62.92Q807.28 43.96 793.96 43.96Q780.64 43.96 780.64 61.96Q780.64 69.88 784.36 74.56Q788.2 79.24 793.96 79.24ZM806.8 92.8L806.8 83.08Q805.12 87.04 800.68 89.32Q796.36 91.48 790.6 91.48Q783.28 91.48 778.24 88.96Q773.32 86.32 770.2 82.12Q767.2 77.92 765.76 72.4Q764.44 66.88 764.44 61.12Q764.44 54.28 766.48 48.64Q768.52 42.88 772 38.92Q775.48 34.84 780.16 32.68Q784.84 30.4 790.24 30.4Q801.28 30.4 806.8 39.28L806.8 31.96L822.4 31.96L822.4 91.6Q822.4 98.32 820.12 103.48Q817.84 108.52 813.88 112Q809.92 115.36 804.52 117.16Q799.12 118.96 793 118.96Q786.88 118.96 781.6 117.28Q776.32 115.48 772.48 112.36Q768.76 109.12 766.6 104.56Q764.44 100 764.44 94.24L778.96 94.24Q778.96 99.64 782.44 102.64Q786.04 105.52 791.92 105.52Q798.16 105.52 802.48 102.16Q806.8 98.68 806.8 92.8Z" />
	<path id="Delivery " fill="#e3e3e8" d="M493.96 241.44L507.76 241.44Q518.68 241.44 523.6 234.72Q528.52 227.88 528.52 214.32Q528.52 207.6 527.32 202.8Q526.12 198 523.36 195Q520.72 191.88 516.52 190.56Q512.32 189.12 506.32 189.12L493.96 189.12L493.96 241.44ZM511.12 255L477.76 255L477.76 175.32L508.6 175.32Q516.64 175.32 523.48 178.08Q530.32 180.72 535.12 185.76Q540.04 190.8 542.8 198Q545.56 205.2 545.56 214.32Q545.56 223.44 543.04 231Q540.64 238.44 536.08 243.84Q531.52 249.12 525.16 252.12Q518.8 255 511.12 255ZM565.72 219.72L589.84 219.72Q589.72 216.48 588.64 214.08Q587.68 211.56 586 210Q584.32 208.32 582.16 207.6Q580 206.76 577.72 206.76Q573.04 206.76 569.56 210.24Q566.2 213.6 565.72 219.72ZM605.92 229.56L565.24 229.56Q565.6 236.28 569.08 240.24Q572.68 244.2 578.44 244.2Q582.28 244.2 585.16 242.52Q588.16 240.72 589 237.6L605.08 237.6Q602.32 246.72 595.48 251.64Q588.64 256.56 579.16 256.56Q549.64 256.56 549.64 224.4Q549.64 217.56 551.56 212.04Q553.48 206.52 557.08 202.56Q560.8 198.6 566.08 196.56Q571.36 194.4 578.2 194.4Q591.88 194.4 598.84 203.16Q605.92 211.92 605.92 229.56ZM626.92 255L611.32 255L611.32 174.36L626.92 174.36L626.92 255ZM649.48 255L633.88 255L633.88 195.96L649.48 195.96L649.48 255ZM649.48 188.88L633.88 188.88L633.88 174.36L649.48 174.36L649.48 188.88ZM691.24 255L674.92 255L653.8 195.96L671.2 195.96L683.56 234.96L696.04 195.96L712.48 195.96L691.24 255ZM727.36 219.72L751.48 219.72Q751.36 216.48 750.28 214.08Q749.32 211.56 747.64 210Q745.96 208.32 743.8 207.6Q741.64 206.76 739.36 206.76Q734.68 206.76 731.2 210.24Q727.84 213.6 727.36 219.72ZM767.56 229.56L726.88 229.56Q727.24 236.28 730.72 240.24Q734.32 244.2 740.08 244.2Q743.92 244.2 746.8 242.52Q749.8 240.72 750.64 237.6L766.72 237.6Q763.96 246.72 757.12 251.64Q750.28 256.56 740.8 256.56Q711.28 256.56 711.28 224.4Q711.28 217.56 713.2 212.04Q715.12 206.52 718.72 202.56Q722.44 198.6 727.72 196.56Q733 194.4 739.84 194.4Q753.52 194.4 760.48 203.16Q767.56 211.92 767.56 229.56ZM788.56 255L772.96 255L772.96 195.96L787.6 195.96L787.6 203.04Q789.52 200.04 791.56 198.36Q793.72 196.68 795.88 195.84Q798.16 194.88 800.44 194.64Q802.72 194.4 805.12 194.4L807.16 194.4L807.16 210.36Q805 210 802.84 210Q788.56 210 788.56 224.28L788.56 255ZM849.04 256.8L849.04 247.2Q847.36 251.16 842.92 253.44Q838.6 255.6 833.08 255.6Q828.4 255.6 824.44 254.16Q820.48 252.6 817.6 249.84Q814.72 246.96 813.04 243.12Q811.48 239.16 811.48 234.24L811.48 195.96L827.08 195.96L827.08 231.96Q827.08 243 837.04 243Q842.44 243 845.68 239.88Q849.04 236.76 849.04 231.96L849.04 195.96L864.64 195.96L864.64 256.56Q864.64 262.8 862.48 267.72Q860.44 272.64 856.72 276Q853.12 279.36 848.08 281.16Q843.16 282.96 837.52 282.96Q824.44 282.96 817.96 276.36Q811.48 269.76 811.48 258.24L826 258.24Q826 263.52 829 266.52Q832.12 269.52 838.24 269.52Q840.4 269.52 842.32 268.68Q844.24 267.72 845.68 266.16Q847.24 264.48 848.08 262.08Q849.04 259.68 849.04 256.8Z" />
	<path id="{ " fill="#f26444" d="M468.71 225.08L460.49 225.08Q448.51 225.08 440.96 223.08Q433.63 220.86 429.41 216.65Q425.42 212.21 424.09 205.55Q422.75 198.89 422.75 190.01Q422.75 188.01 422.98 184.23Q423.2 180.46 423.2 176.24Q423.42 172.02 423.64 168.47Q423.86 164.7 423.86 163.14Q423.86 150.27 419.87 145.16Q416.09 140.06 405.66 140.06L405.66 120.96Q416.09 120.96 419.87 115.86Q423.86 110.53 423.86 97.65Q423.86 96.1 423.64 92.55Q423.42 88.77 423.2 84.78Q423.2 80.78 422.98 77.01Q422.75 73.23 422.75 71.24Q422.75 62.36 424.09 55.7Q425.42 49.04 429.41 44.82Q433.63 40.38 440.96 38.38Q448.51 36.16 460.49 36.16L468.71 36.16L468.71 54.36L463.82 54.36Q454.06 54.36 450.5 57.47Q447.17 60.58 447.17 68.35Q447.17 78.34 447.84 88.11Q448.51 97.88 448.51 107.87Q448.51 112.53 446.51 116.52Q444.51 120.3 441.18 123.41Q438.07 126.29 433.63 128.07Q429.41 129.84 424.75 130.51Q429.41 131.18 433.63 132.95Q438.07 134.73 441.18 137.84Q444.51 140.72 446.51 144.72Q448.51 148.49 448.51 153.15Q448.51 163.14 447.84 173.13Q447.17 182.9 447.17 192.89Q447.17 200.66 450.5 203.77Q454.06 206.88 463.82 206.88L468.71 206.88L468.71 225.08Z" />
</svg>